<?xml version="1.0" encoding="utf-8"?>
<svg xmlns="http://www.w3.org/2000/svg" viewBox="0 0 50 50" xmlns:bx="https://boxy-svg.com"
    width="500px" height="500px">
    <defs>
        <bx:export>
            <bx:file format="svg" path="Unbetitelt.svg" />
        </bx:export>
    </defs>
    <text
        style="white-space: pre; fill: rgb(51, 51, 51); font-family: Arial, sans-serif; font-size: 28px;"
        x="90.474" y="52.621"> </text>
    <path
        d="M 22.552 0.905 Q 25 0 27.448 0.905 L 38.87 5.126 Q 41.318 6.031 42.62 8.322 L 48.698 19.011 Q 50 21.302 49.548 23.906 L 47.437 36.062 Q 46.985 38.667 44.99 40.367 L 35.678 48.301 Q 33.683 50.001 31.078 50.001 L 18.922 50.001 Q 16.317 50.001 14.322 48.301 L 5.01 40.367 Q 3.015 38.667 2.563 36.062 L 0.452 23.906 Q 0 21.302 1.302 19.011 L 7.38 8.322 Q 8.682 6.031 11.13 5.126 Z"
        bx:shape="n-gon 25 25.778 25.386 25.778 9 0.15 1@305e7b8f"
        style="fill-opacity: 0.41; fill: rgb(140, 149, 16); paint-order: fill;" />
    <text
        style="fill: rgb(255, 255, 255); font-family: Arial, sans-serif; font-size: 26.8px; white-space: pre; transform-box: fill-box; transform-origin: 18.6153px 15.0045px;"
        transform="matrix(0.999228, 0, 0, 1, 0.049067, 0.000001)" x="38.426" y="33.112" dx="-31.949"
        dy="2.332">RS</text>
</svg>